<?xml version="1.0" encoding="UTF-8"?>
<svg version="1.1" xmlns="http://www.w3.org/2000/svg" width="424" height="424">
<path d="M0 0 C-1.98 3.3 -3.96 6.6 -6 10 C-5.67 10 -5.34 10 -5 10 C-4.34 10 -3.68 10 -3 10 C-3.66 13.63 -4.32 17.26 -5 21 C-4.195625 19.88625 -3.39125 18.7725 -2.5625 17.625 C9.84146964 1.25176007 9.84146964 1.25176007 18 0 C25.23667579 -0.81704404 31.02657504 -0.33537016 37 4 C42.03533581 9.07495524 46.20309023 14.86039372 50.3125 20.6875 C54.26986677 26.23501804 58.26185332 31.73940596 62.4375 37.125 C63.23800781 38.15753906 64.03851563 39.19007813 64.86328125 40.25390625 C65.56839844 41.16011719 66.27351563 42.06632812 67 43 C71.37423547 48.64450525 75.3598138 54.48111028 79.265625 60.4609375 C80.90351567 63.02688087 80.90351567 63.02688087 83 65 C83.70710678 66.64991582 84.37943989 68.31562256 85 70 C85.66 70 86.32 70 87 70 C88.19140625 71.765625 88.19140625 71.765625 89.5625 74.25 C93.21813147 80.55618665 97.58344062 86.2140815 102 92 C106.87577461 98.54694406 111.50078916 105.21701483 116 112.02734375 C119.19963944 116.78305784 122.59763665 121.38820281 126 126 C130.13635321 131.60669752 134.18277928 137.2322918 138 143.0625 C141.117473 147.7905657 144.4793437 152.18934406 148.0625 156.5703125 C150.61670021 159.77336196 152.94931944 163.10142204 155.2578125 166.484375 C156.46605488 168.22901198 157.71407858 169.94650415 158.9921875 171.640625 C159.63414062 172.50171875 160.27609375 173.3628125 160.9375 174.25 C161.52402344 175.01828125 162.11054688 175.7865625 162.71484375 176.578125 C164.29332326 179.55276723 164.23506848 181.68025739 164 185 C160.83335476 185.03002216 157.66674753 185.04712744 154.5 185.0625 C153.63246094 185.07087891 152.76492188 185.07925781 151.87109375 185.08789062 C146.39556522 185.10758677 140.98927381 184.88236683 135.52734375 184.48828125 C129.40961854 184.05131075 123.35402294 183.98260237 117.22265625 184.0703125 C114.69002299 184.08447217 112.15741628 184.09378839 109.62475586 184.1015625 C107.9037981 184.11730447 106.18291901 184.15110082 104.46264648 184.20214844 C90.1067642 184.59735138 90.1067642 184.59735138 84.94873047 180.68652344 C82.63853784 177.90107769 80.78496539 175.14287519 79 172 C78.26394531 170.93394531 77.52789062 169.86789062 76.76953125 168.76953125 C76.18558594 167.85558594 75.60164063 166.94164062 75 166 C73.25852797 163.54091535 71.47392328 161.11405829 69.6875 158.6875 C69.19894531 158.02234375 68.71039063 157.3571875 68.20703125 156.671875 C65.68208899 153.24516764 63.13194657 149.84569479 60.5 146.5 C54.95417163 139.44887535 49.74349667 132.13913499 44.46240234 124.88916016 C43.44404033 123.49152832 42.42501234 122.09438146 41.40527344 120.69775391 C40.44471085 119.38217301 39.4856649 118.06548307 38.52832031 116.74755859 C36.78382424 114.35909055 35.09497313 112.09497313 33 110 C31.5386627 107.81870767 30.13515682 105.60484549 28.73046875 103.38671875 C26.73191742 100.63025178 24.4535677 98.35359211 22 96 C7.31223558 115.86468295 7.31223558 115.86468295 -7 136 C-11.03375358 141.79131763 -15.09564565 147.56211075 -19.1875 153.3125 C-19.60362549 153.8993457 -20.01975098 154.48619141 -20.44848633 155.09082031 C-22.27558157 157.65277728 -24.13070231 160.16114315 -26.11328125 162.60546875 C-28.03652792 164.93940758 -28.03652792 164.93940758 -29.46875 167.46875 C-34.05094593 175.04340042 -40.38334976 182.01434372 -48.74609375 185.25 C-57.29706608 187.2209324 -67.52413961 188.03605587 -75.4375 183.6875 C-83.17119634 178.04471636 -89.81647526 171.01372924 -95 163 C-102.14176921 153.30377776 -109.82630036 144.03965148 -117.53125 134.78979492 C-118.78954497 133.25645709 -120.00484981 131.68801412 -121.2109375 130.11328125 C-123.4582354 127.45872194 -125.83669527 126.3659725 -129 125 C-129 124.34 -129 123.68 -129 123 C-128.34 123 -127.68 123 -127 123 C-127.73581742 121.8450079 -128.48930039 120.70125815 -129.25 119.5625 C-129.87648437 118.60537109 -129.87648437 118.60537109 -130.515625 117.62890625 C-132.27248877 115.70097943 -133.46089803 115.38520564 -136 115 C-136.66 116.32 -137.32 117.64 -138 119 C-138.66 119 -139.32 119 -140 119 C-140.2784375 120.175625 -140.2784375 120.175625 -140.5625 121.375 C-142.21414245 125.54001141 -144.46596284 128.6886779 -147.078125 132.3046875 C-152.49925799 139.90749596 -157.24530594 147.98873988 -162.10546875 155.95703125 C-163.39222495 158.02380049 -164.71822836 160.06654211 -166.078125 162.0859375 C-167.74715027 164.61661403 -169.17592621 167.12193832 -170.5625 169.8125 C-173.37713626 174.95845114 -176.27462161 180.04548582 -179.3125 185.0625 C-179.73797119 185.81313721 -180.16344238 186.56377441 -180.60180664 187.3371582 C-182.92398576 191.08270508 -184.67650304 193.34841638 -189.05078125 194.4375 C-190.69415186 194.67441769 -192.34576967 194.85745545 -194 195 C-194.97203369 195.09015381 -195.94406738 195.18030762 -196.94555664 195.27319336 C-200.25378581 195.5382897 -203.56194052 195.74240725 -206.875 195.9375 C-215.73764395 196.52160024 -224.41799816 197.36617359 -233.16674805 198.88769531 C-242.05751099 200.41422438 -251.01979781 201.19566155 -260 202 C-260.265625 196.34375 -260.265625 196.34375 -257.875 193.25 C-257.41996094 192.75886719 -256.96492188 192.26773438 -256.49609375 191.76171875 C-253.47567763 188.20504076 -251.33203591 184.02515787 -249 180 C-248.58105469 179.33226562 -248.16210938 178.66453125 -247.73046875 177.9765625 C-245.60463563 174.53616827 -244.40061422 172.07582329 -245 168 C-245.33 167.67 -245.66 167.34 -246 167 C-246.1875 164.5625 -246.1875 164.5625 -246 162 C-244 160 -244 160 -241.375 159.875 C-240.59125 159.91625 -239.8075 159.9575 -239 160 C-239 160.66 -239 161.32 -239 162 C-236.03449464 159.28868082 -233.7046133 156.71504918 -231.61328125 153.27734375 C-230.9634729 152.21749268 -230.9634729 152.21749268 -230.30053711 151.13623047 C-229.65677124 150.07879639 -229.65677124 150.07879639 -229 149 C-228.23839631 147.77125591 -227.47542352 146.54335912 -226.7109375 145.31640625 C-226.14270264 144.40266235 -226.14270264 144.40266235 -225.56298828 143.47045898 C-221.04168111 136.20905012 -216.44463601 129.00216393 -211.75537109 121.84790039 C-209.70122994 118.69931466 -207.70896043 115.54321882 -205.859375 112.26953125 C-204.37471406 109.65889847 -202.83894916 107.20956546 -201.125 104.75 C-198.2340335 100.47925403 -195.79701027 96.03708917 -193.3671875 91.4921875 C-191.74527704 88.53567643 -189.89732313 85.78669335 -188 83 C-186.47119494 80.46550886 -184.96364638 77.91952513 -183.46484375 75.3671875 C-182 73 -182 73 -180.56640625 71.1328125 C-178.44188513 68.24007303 -176.74422859 65.12927776 -175 62 C-164.97484191 44.40946488 -164.97484191 44.40946488 -161.50390625 38.5546875 C-160.3550064 36.60304983 -159.25898931 34.62018699 -158.1875 32.625 C-153.55770013 27.06924015 -145.65162661 22.6788088 -138.45703125 21.62890625 C-131.32914532 21.44991945 -125.78999091 22.68064621 -120 27 C-118.39453125 29.078125 -118.39453125 29.078125 -117 31.25 C-115.24982435 33.94102151 -114.54744769 34.84453147 -111.4140625 35.734375 C-108.91651626 35.97223655 -106.5062764 36.07924985 -104 36 C-103.814375 34.700625 -103.814375 34.700625 -103.625 33.375 C-101.14063837 19.95944719 -90.28158309 7.21283447 -79.265625 -0.59375 C-55.73696679 -15.19774475 -22.73679908 -18.08609018 0 0 Z M34 9 C35.36983503 12.16115776 35.9890638 12.9927092 39 15 C38.5359375 14.071875 38.5359375 14.071875 38.0625 13.125 C37.375 11.75 36.6875 10.375 36 9 C35.34 9 34.68 9 34 9 Z M15 16 C15.33 17.32 15.66 18.64 16 20 C14.68 20.33 13.36 20.66 12 21 C11.73312453 26.82173615 11.73312453 26.82173615 14 32 C17.31756327 34.31080782 21.04372436 36.17784324 25.1484375 35.8046875 C27.26792353 35.23195224 27.26792353 35.23195224 30 34 C30 32.35 30 30.7 30 29 C30.66 29 31.32 29 32 29 C31.44894091 25.0507432 30.61064629 21.65079826 29 18 C27.2925002 19.28062485 25.62626404 20.61767557 24 22 C24 22.66 24 23.32 24 24 C22.68 24 21.36 24 20 24 C19.9175 23.4225 19.835 22.845 19.75 22.25 C18.79468987 19.3840696 17.21530827 18.0009236 15 16 Z M-16 23 C-19.86693458 27.8879791 -23.5899679 32.77838834 -27 38 C-30.58312701 43.20846297 -34.24891096 48.34881331 -38 53.4375 C-40.59679703 56.98944077 -43.04417634 60.58099358 -45.375 64.3125 C-48.96711643 70.06154547 -52.89386299 75.54024749 -56.86328125 81.03125 C-58.27737149 82.99598232 -59.65723313 84.9858497 -61 87 C-64.2121038 85.92929873 -64.73165464 85.409251 -66.69921875 82.83984375 C-67.18583984 82.21142578 -67.67246094 81.58300781 -68.17382812 80.93554688 C-68.67333984 80.27619141 -69.17285156 79.61683594 -69.6875 78.9375 C-70.19861328 78.27427734 -70.70972656 77.61105469 -71.23632812 76.92773438 C-72.49709409 75.2899169 -73.74936784 73.64556863 -75 72 C-75.33 72.66 -75.66 73.32 -76 74 C-75.67 74.66 -75.34 75.32 -75 76 C-76.32 75.34 -77.64 74.68 -79 74 C-77.35812452 85.31069775 -70.54427014 92.79073341 -63 101 C-60.49034386 100.29660434 -60.49034386 100.29660434 -58 99 C-57.11306697 96.95894361 -57.11306697 96.95894361 -57 95 C-56.34 95 -55.68 95 -55 95 C-53.39142945 92.80151888 -51.90331459 90.60391066 -50.4375 88.3125 C-49.52820961 86.92130869 -48.61803805 85.53069295 -47.70703125 84.140625 C-47.02181396 83.0897168 -47.02181396 83.0897168 -46.32275391 82.01757812 C-40.17916036 72.64684039 -33.5601557 63.65441151 -26.796875 54.7265625 C-22.94814386 49.62234871 -19.22055538 44.52963282 -16 39 C-14.60669618 36.7275561 -13.21134939 34.45651972 -11.8125 32.1875 C-11.44447266 31.59001953 -11.07644531 30.99253906 -10.69726562 30.37695312 C-9.79843381 28.91781057 -8.89925295 27.45888305 -8 26 C-8.99 25.505 -8.99 25.505 -10 25 C-10.33 25.66 -10.66 26.32 -11 27 C-12.32 27 -13.64 27 -15 27 C-15.495 25.02 -15.495 25.02 -16 23 Z M-242 163 C-242.33 163.99 -242.66 164.98 -243 166 C-242.01 166 -241.02 166 -240 166 C-240 165.01 -240 164.02 -240 163 C-240.66 163 -241.32 163 -242 163 Z " fill="#0279FA" transform="translate(260,127)"/>
<path d="M0 0 C-1.98 3.3 -3.96 6.6 -6 10 C-5.67 10 -5.34 10 -5 10 C-4.34 10 -3.68 10 -3 10 C-3.25677589 11.75211782 -3.53102953 13.50167936 -3.8125 15.25 C-3.96332031 16.22453125 -4.11414063 17.1990625 -4.26953125 18.203125 C-5.03898812 21.1492807 -5.91785322 22.79722506 -8 25 C-8.66 25 -9.32 25 -10 25 C-10.33 25.99 -10.66 26.98 -11 28 C-12.65 27.67 -14.3 27.34 -16 27 C-16 26.01 -16 25.02 -16 24 C-16.4125 24.59425781 -16.825 25.18851563 -17.25 25.80078125 C-20.45514527 30.40102323 -23.69303031 34.97229345 -27 39.5 C-31.69291545 45.93237445 -36.30872553 52.4113586 -40.6875 59.0625 C-47.19002755 68.88658892 -54.1471529 78.41858809 -61 88 C-65.28427364 86.45925194 -67.45149377 83.21451142 -70.0625 79.6875 C-70.49626953 79.11837891 -70.93003906 78.54925781 -71.37695312 77.96289062 C-73.80355252 74.74589204 -75.94227836 71.46807018 -78 68 C-79.56108096 65.89197096 -81.17226638 63.83188488 -82.79296875 61.76953125 C-84 60 -84 60 -84 58 C-84.66 58 -85.32 58 -86 58 C-85.54625 58.721875 -85.0925 59.44375 -84.625 60.1875 C-83.14505642 62.74894081 -82.02782461 65.23277989 -81 68 C-81.99 68 -82.98 68 -84 68 C-83.319375 68.9590625 -83.319375 68.9590625 -82.625 69.9375 C-80.55458473 73.83943648 -79.79918586 77.68439633 -79 82 C-82.59032226 78.54312335 -85.67220972 74.9871607 -88.6875 71 C-89.56373594 69.84760596 -90.44004 68.6952637 -91.31640625 67.54296875 C-91.76000488 66.95692871 -92.20360352 66.37088867 -92.66064453 65.76708984 C-94.80358208 62.93978725 -96.96340331 60.12554825 -99.125 57.3125 C-99.53645264 56.77568604 -99.94790527 56.23887207 -100.37182617 55.68579102 C-103.63997523 51.43401798 -106.99877516 47.26173428 -110.40625 43.12109375 C-112 41 -112 41 -114 37 C-110.04 37.33 -106.08 37.66 -102 38 C-102.185625 36.1025 -102.37125 34.205 -102.5625 32.25 C-102.5718413 23.65600215 -98.54408015 19.17546525 -93 13 C-92.30777344 12.16210938 -91.61554688 11.32421875 -90.90234375 10.4609375 C-81.40958962 -0.82468272 -67.6898544 -9.13351749 -53.0625 -11.6875 C-34.15645656 -13.25755205 -15.42261965 -12.2679929 0 0 Z " fill="#FAEC02" transform="translate(260,127)"/>
<path d="M0 0 C1.75617416 1.23843414 3.18671149 2.60434393 4.65625 4.16796875 C4.32625 4.82796875 3.99625 5.48796875 3.65625 6.16796875 C1.18125 5.67296875 1.18125 5.67296875 -1.34375 5.16796875 C-2.99375 7.47796875 -4.64375 9.78796875 -6.34375 12.16796875 C-5.68375 12.16796875 -5.02375 12.16796875 -4.34375 12.16796875 C-4.22257812 12.86664063 -4.10140625 13.5653125 -3.9765625 14.28515625 C-3.72519531 15.65027344 -3.72519531 15.65027344 -3.46875 17.04296875 C-3.22511719 18.40035156 -3.22511719 18.40035156 -2.9765625 19.78515625 C-2.51330297 22.33302863 -2.51330297 22.33302863 -0.34375 24.16796875 C-0.34375 25.48796875 -0.34375 26.80796875 -0.34375 28.16796875 C-1.33375 28.66296875 -1.33375 28.66296875 -2.34375 29.16796875 C-2.67375 30.15796875 -3.00375 31.14796875 -3.34375 32.16796875 C-4.99375 32.16796875 -6.64375 32.16796875 -8.34375 32.16796875 C-8.67375 33.15796875 -9.00375 34.14796875 -9.34375 35.16796875 C-12.81316546 34.70974407 -16.01770049 34.27665192 -19.34375 33.16796875 C-19.34375 32.50796875 -19.34375 31.84796875 -19.34375 31.16796875 C-20.99375 30.83796875 -22.64375 30.50796875 -24.34375 30.16796875 C-24.34375 28.51796875 -24.34375 26.86796875 -24.34375 25.16796875 C-25.106875 25.37421875 -25.87 25.58046875 -26.65625 25.79296875 C-29.34375 26.16796875 -29.34375 26.16796875 -32.34375 24.16796875 C-34.96906524 24.00083306 -34.96906524 24.00083306 -37.34375 24.16796875 C-35.46875 18.41796875 -35.46875 18.41796875 -34.34375 16.16796875 C-35.00375 16.16796875 -35.66375 16.16796875 -36.34375 16.16796875 C-35.35938368 10.00497964 -30.19203743 4.65456889 -25.62109375 0.6640625 C-18.02562071 -4.60031907 -7.9083483 -4.37304853 0 0 Z M-20.34375 13.16796875 C-20.01375 14.48796875 -19.68375 15.80796875 -19.34375 17.16796875 C-20.66375 17.49796875 -21.98375 17.82796875 -23.34375 18.16796875 C-23.61062547 23.9897049 -23.61062547 23.9897049 -21.34375 29.16796875 C-18.02618673 31.47877657 -14.30002564 33.34581199 -10.1953125 32.97265625 C-8.07582647 32.39992099 -8.07582647 32.39992099 -5.34375 31.16796875 C-5.34375 29.51796875 -5.34375 27.86796875 -5.34375 26.16796875 C-4.68375 26.16796875 -4.02375 26.16796875 -3.34375 26.16796875 C-3.89480909 22.21871195 -4.73310371 18.81876701 -6.34375 15.16796875 C-8.0512498 16.4485936 -9.71748596 17.78564432 -11.34375 19.16796875 C-11.34375 19.82796875 -11.34375 20.48796875 -11.34375 21.16796875 C-12.66375 21.16796875 -13.98375 21.16796875 -15.34375 21.16796875 C-15.42625 20.59046875 -15.50875 20.01296875 -15.59375 19.41796875 C-16.54906013 16.55203835 -18.12844173 15.16889235 -20.34375 13.16796875 Z " fill="#0E90EA" transform="translate(295.34375,129.83203125)"/>
<path d="M0 0 C0.66 0 1.32 0 2 0 C-0.48551276 10.97768136 -4.85547439 21.25997079 -9.09423828 31.65527344 C-11.00817361 36.38097068 -12.75191009 41.11993691 -14.32788086 45.96875 C-15.52919136 49.5992997 -16.94457371 53.15069531 -18.328125 56.71484375 C-19.28265899 59.00247435 -19.28265899 59.00247435 -18 61 C-15.65092125 61.68931344 -15.65092125 61.68931344 -12.9375 62.125 C-12.01839844 62.29257813 -11.09929687 62.46015625 -10.15234375 62.6328125 C-9.08693359 62.81457031 -9.08693359 62.81457031 -8 63 C-8 63.66 -8 64.32 -8 65 C-15.31110994 65.3689719 -21.21256822 64.81552726 -28 62 C-29.44999011 57.85030456 -28.6138049 55.37141159 -26.75170898 51.48168945 C-26.40052002 50.78648193 -26.04933105 50.09127441 -25.6875 49.375 C-25.32793213 48.63789795 -24.96836426 47.9007959 -24.59790039 47.14135742 C-21.01463331 39.86401633 -17.20915568 32.69910816 -13.3984375 25.5390625 C-9.56915674 18.32831663 -5.96344256 11.00692954 -2.37109375 3.67578125 C-1 1 -1 1 0 0 Z " fill="#D0D017" transform="translate(278,47)"/>
<path d="M0 0 C3.58936385 3.44984794 6.64752397 6.98910445 9.625 11 C10.75808594 12.5159375 10.75808594 12.5159375 11.9140625 14.0625 C16.71463036 20.82285025 16.71463036 20.82285025 17.5 24.0625 C18.13404177 26.51941187 19.46958536 28.00380699 21 30 C21 30.66 21 31.32 21 32 C20.01 32 19.02 32 18 32 C18.680625 32.9590625 18.680625 32.9590625 19.375 33.9375 C21.44541527 37.83943648 22.20081414 41.68439633 23 46 C19.40967774 42.54312335 16.32779028 38.9871607 13.3125 35 C12.43626406 33.84760596 11.55996 32.6952637 10.68359375 31.54296875 C10.23999512 30.95692871 9.79639648 30.37088867 9.33935547 29.76708984 C7.19641792 26.93978725 5.03659669 24.12554825 2.875 21.3125 C2.46354736 20.77568604 2.05209473 20.23887207 1.62817383 19.68579102 C-1.63997523 15.43401798 -4.99877516 11.26173428 -8.40625 7.12109375 C-10 5 -10 5 -12 1 C-8.04 1.33 -4.08 1.66 0 2 C0 1.34 0 0.68 0 0 Z " fill="#F6F9F8" transform="translate(158,163)"/>
<path d="M0 0 C0.66 0.66 1.32 1.32 2 2 C0.68 3.32 -0.64 4.64 -2 6 C-1.401875 6.12375 -0.80375 6.2475 -0.1875 6.375 C2 7 2 7 5 9 C5.99 9 6.98 9 8 9 C9.54638672 10.6171875 9.54638672 10.6171875 11.1796875 12.875 C12.07880859 14.10669922 12.07880859 14.10669922 12.99609375 15.36328125 C13.61613281 16.23339844 14.23617188 17.10351562 14.875 18 C15.48730469 18.83917969 16.09960938 19.67835938 16.73046875 20.54296875 C20.37321376 25.57416903 23.77020812 30.69479053 27 36 C22.30235001 36.87559748 17.60401787 37.54049902 13 36 C8.53392111 32.73712242 5.28964551 28.11629551 2.14428711 23.62207031 C0.94620154 21.87478022 0.94620154 21.87478022 -0.7890625 19.875 C-2.34524783 17.46542272 -2.50034419 15.59476831 -2.6875 12.75 C-2.75324219 11.85796875 -2.81898438 10.9659375 -2.88671875 10.046875 C-2.92410156 9.37140625 -2.96148437 8.6959375 -3 8 C-3.99 8.33 -4.98 8.66 -6 9 C-4.47291037 5.56404834 -2.40072955 2.88087546 0 0 Z " fill="#F5F9F9" transform="translate(294,134)"/>
<path d="M0 0 C4.62214739 0.28888421 7.15884577 2.46000293 10.65625 5.20703125 C15.25703864 8.72663456 20.16762312 11.81051795 25 15 C26.20506768 15.80503149 27.40947607 16.6110506 28.61328125 17.41796875 C29.23050049 17.83127441 29.84771973 18.24458008 30.48364258 18.67041016 C31.74319977 19.5142338 33.00215353 20.35895887 34.26049805 21.20458984 C37.48371565 23.36059657 40.72732466 25.4655563 44.03125 27.49609375 C44.67658691 27.89642822 45.32192383 28.2967627 45.98681641 28.70922852 C47.2171089 29.46881562 48.45355566 30.21855134 49.69677734 30.95678711 C52.09429506 32.44288366 53.76131048 33.48811164 54.97265625 36.0859375 C55.01390665 38.97346559 53.6083909 40.6839171 52 43 C47.50126006 42.50457926 45.43007767 40.96566369 42.1875 37.875 C41.3109375 37.05644531 40.434375 36.23789063 39.53125 35.39453125 C38.6959375 34.60433594 37.860625 33.81414062 37 33 C32.43349019 28.82309321 27.68918266 24.97681152 22.75 21.25 C17.0311096 16.93158598 11.77036113 12.26241654 6.55859375 7.34765625 C4.11447195 5.01372129 4.11447195 5.01372129 1.66015625 3.30859375 C1.11230469 2.87675781 0.56445312 2.44492188 0 2 C0 1.34 0 0.68 0 0 Z " fill="#C7C61D" transform="translate(106,92)"/>
<path d="M0 0 C0.99 0.33 1.98 0.66 3 1 C3.74907739 4.45309133 4.21494665 7.81538359 4.48071289 11.33764648 C4.60072411 12.89968056 4.60072411 12.89968056 4.72315979 14.49327087 C4.80549362 15.60795242 4.88782745 16.72263397 4.97265625 17.87109375 C5.06002548 19.02617935 5.14739471 20.18126495 5.2374115 21.37135315 C5.42124142 23.81134024 5.60354267 26.25144293 5.78442383 28.69165039 C6.06123055 32.42039978 6.34372202 36.14868682 6.62695312 39.87695312 C6.80502711 42.24997454 6.98277244 44.62302064 7.16015625 46.99609375 C7.24451431 48.10875107 7.32887238 49.22140839 7.41578674 50.36778259 C7.49264206 51.4122908 7.56949738 52.45679901 7.64868164 53.53295898 C7.71672501 54.4460936 7.78476837 55.35922821 7.85487366 56.30003357 C8.01137691 59.2116588 8.09048432 62.08503165 8 65 C7 66 7 66 5.15234375 66.09765625 C3.1015625 66.06510417 1.05078125 66.03255208 -1 66 C-1.16840589 43.98028256 -0.68801823 22.00743419 0 0 Z " fill="#C7C72A" transform="translate(215,36)"/>
<path d="M0 0 C3.6014007 1.43746895 4.96345985 3.03790449 6.875 6.375 C7.64457031 7.71498047 7.64457031 7.71498047 8.4296875 9.08203125 C10.5101751 12.94801194 12.44112418 16.87655221 14.3125 20.84765625 C16.14074969 24.26292824 18.23694926 27.38557252 20.40820312 30.58911133 C23.03108389 34.56164929 25.38545855 38.68273993 27.75 42.8125 C28.23082031 43.64458984 28.71164063 44.47667969 29.20703125 45.33398438 C31.76760196 49.7811037 31.76760196 49.7811037 33 52 C33.59989746 53.02806763 33.59989746 53.02806763 34.21191406 54.0769043 C35 56 35 56 34 59 C30.6875 59.6875 30.6875 59.6875 27 60 C24.25639865 57.96056752 23.28227143 55.65433275 22.125 52.5 C20.70306786 48.76607133 19.17904665 45.12591668 17.5 41.5 C15.93959727 38.11439893 14.47161567 34.72587976 13.125 31.25 C9.77110689 22.71529638 5.78136104 14.38744727 1.5625 6.25 C0 3 0 3 0 0 Z " fill="#C8C81A" transform="translate(154,51)"/>
<path d="M0 0 C0.66 0.66 1.32 1.32 2 2 C3.65391846 2.39171753 5.32345271 2.72057545 7 3 C7.721875 3.185625 8.44375 3.37125 9.1875 3.5625 C11.01326836 4.07821351 11.01326836 4.07821351 13 4 C13.33 5.65 13.66 7.3 14 9 C15.32 9.33 16.64 9.66 18 10 C18 10.66 18 11.32 18 12 C21.3 12.33 24.6 12.66 28 13 C28.33 12.34 28.66 11.68 29 11 C30.65 11 32.3 11 34 11 C32.65070536 14.83663072 30.92248975 17.65172569 28.375 20.8125 C27.74335938 21.60269531 27.11171875 22.39289063 26.4609375 23.20703125 C25.97882813 23.79871094 25.49671875 24.39039063 25 25 C21.6334294 23.8778098 21.11194787 23.17438042 19.08203125 20.40234375 C18.55029297 19.68369141 18.01855469 18.96503906 17.47070312 18.22460938 C16.92349609 17.46986328 16.37628906 16.71511719 15.8125 15.9375 C15.25369141 15.17888672 14.69488281 14.42027344 14.11914062 13.63867188 C12.73951241 11.76379251 11.36684859 9.88420569 10 8 C7.24894619 10.58238455 5.40733618 12.98373266 3.5625 16.25 C2.05859375 18.359375 2.05859375 18.359375 0 20 C-4.40903279 20.69367381 -8.57445763 20.47275824 -13 20 C-11.40013936 15.03657693 -8.47460168 11.29801238 -5.375 7.1875 C-4.6015625 6.14819336 -4.6015625 6.14819336 -3.8125 5.08789062 C-2.54657074 3.38826337 -1.27394735 1.69362565 0 0 Z " fill="#F6FDFD" transform="translate(258,151)"/>
<path d="M0 0 C-0.56443229 3.49345456 -1.57449728 4.82634463 -4.31640625 7.01171875 C-9.63477638 11.45892537 -14.48820654 16.33775914 -19.37524414 21.24487305 C-20.95539644 22.83045796 -22.54091976 24.41053442 -24.12695312 25.99023438 C-25.13573806 26.99967892 -26.14421338 28.00943299 -27.15234375 29.01953125 C-28.05976318 29.92807861 -28.96718262 30.83662598 -29.90209961 31.77270508 C-32.02746534 33.81516585 -32.02746534 33.81516585 -33 36 C-39.625 36.25 -39.625 36.25 -43 34 C-41.47300974 29.55315674 -37.94043738 27.50626598 -34.25 24.9375 C-32.88526411 23.96297138 -31.5220176 22.98635414 -30.16015625 22.0078125 C-29.46680176 21.51055664 -28.77344727 21.01330078 -28.05908203 20.50097656 C-24.87533828 18.18017308 -21.77709935 15.7565754 -18.6875 13.3125 C-18.11322266 12.85955566 -17.53894531 12.40661133 -16.94726562 11.93994141 C-14.27239556 9.82323166 -11.61626527 7.68707052 -8.97265625 5.53125 C-7.62494141 4.43296875 -7.62494141 4.43296875 -6.25 3.3125 C-5.47140625 2.66925781 -4.6928125 2.02601562 -3.890625 1.36328125 C-2 0 -2 0 0 0 Z " fill="#C3C324" transform="translate(331,84)"/>
<path d="M0 0 C0 0.66 0 1.32 0 2 C-24.84799449 11.92804269 -24.84799449 11.92804269 -36 14 C-36.66 12.02 -37.32 10.04 -38 8 C-31.71574238 5.64340339 -25.45055512 4.22123479 -18.84960938 3.09057617 C-15.57003742 2.52068996 -12.42552162 1.83543897 -9.22265625 0.91796875 C-5.98218059 -0.00507583 -3.34878284 -0.16335526 0 0 Z " fill="#A09D28" transform="translate(361,140)"/>
<path d="M0 0 C3 1 3 1 4.6875 3.8125 C6 7 6 7 6 11 C4.68 11.33 3.36 11.66 2 12 C2.66 15.63 3.32 19.26 4 23 C8.32059823 24.09845718 12.61667943 25.17812739 17 26 C16.67 26.99 16.34 27.98 16 29 C12.53058454 28.54177532 9.32604951 28.10868317 6 27 C6 26.34 6 25.68 6 25 C4.35 24.67 2.7 24.34 1 24 C1 22.35 1 20.7 1 19 C0.236875 19.20625 -0.52625 19.4125 -1.3125 19.625 C-4 20 -4 20 -7 18 C-9.62531524 17.83286431 -9.62531524 17.83286431 -12 18 C-9.58047417 13.79766566 -6.84444647 9.92072351 -4 6 C-2.39968656 9.20062687 -3.96826309 11.72271806 -5 15 C-4.34 15 -3.68 15 -3 15 C-2.67 13.68 -2.34 12.36 -2 11 C-0.68 11 0.64 11 2 11 C2 9.02 2 7.04 2 5 C0.68 5 -0.64 5 -2 5 C-1.34 3.35 -0.68 1.7 0 0 Z " fill="#505050" transform="translate(270,136)"/>
<path d="M0 0 C2.31 0.33 4.62 0.66 7 1 C7.33 2.65 7.66 4.3 8 6 C9.32 6.33 10.64 6.66 12 7 C12 7.66 12 8.32 12 9 C15.3 9.33 18.6 9.66 22 10 C22.33 9.34 22.66 8.68 23 8 C24.65 8 26.3 8 28 8 C26.65070536 11.83663072 24.92248975 14.65172569 22.375 17.8125 C21.74335938 18.60269531 21.11171875 19.39289063 20.4609375 20.20703125 C19.97882813 20.79871094 19.49671875 21.39039063 19 22 C15.61690174 20.87230058 15.18392326 20.22836211 13.22265625 17.40234375 C12.70896484 16.68369141 12.19527344 15.96503906 11.66601562 15.22460938 C10.59645184 13.69908052 9.53134326 12.17041842 8.47070312 10.63867188 C7.95572266 9.92130859 7.44074219 9.20394531 6.91015625 8.46484375 C6.21611694 7.46892212 6.21611694 7.46892212 5.50805664 6.45288086 C3.86890482 4.5374602 3.86890482 4.5374602 0 5 C0 3.35 0 1.7 0 0 Z " fill="#F4F9F9" transform="translate(264,154)"/>
<path d="M0 0 C3.04207723 3.04207723 3.09896926 3.28324821 4 7 C4.98731742 8.34275169 5.98594743 9.67732273 7 11 C7 11.66 7 12.32 7 13 C6.01 13 5.02 13 4 13 C4.45375 13.639375 4.9075 14.27875 5.375 14.9375 C7.44541527 18.83943648 8.20081414 22.68439633 9 27 C5.19195153 23.3429012 1.89187757 19.50430058 -1.3125 15.3125 C-1.76689453 14.73177734 -2.22128906 14.15105469 -2.68945312 13.55273438 C-6 9.2465343 -6 9.2465343 -6 7 C-3.525 7.99 -3.525 7.99 -1 9 C-0.67 6.03 -0.34 3.06 0 0 Z " fill="#7C8D90" transform="translate(172,182)"/>
<path d="M0 0 C0.66 0 1.32 0 2 0 C1.74322411 1.75211782 1.46897047 3.50167936 1.1875 5.25 C1.03667969 6.22453125 0.88585937 7.1990625 0.73046875 8.203125 C-0.03898812 11.1492807 -0.91785322 12.79722506 -3 15 C-3.66 15 -4.32 15 -5 15 C-5.33 15.99 -5.66 16.98 -6 18 C-7.65 17.67 -9.3 17.34 -11 17 C-10.7276727 10.60030835 -8.33691377 5.75765913 -4 1 C-3.01 1 -2.02 1 -1 1 C-0.67 0.67 -0.34 0.34 0 0 Z " fill="#3F3F3F" transform="translate(255,137)"/>
<path d="M0 0 C-2.00182268 4.12186772 -4.38487372 7.90954285 -6.875 11.75 C-7.30941406 12.44738281 -7.74382812 13.14476562 -8.19140625 13.86328125 C-8.62066406 14.52199219 -9.04992187 15.18070313 -9.4921875 15.859375 C-9.87745605 16.46233398 -10.26272461 17.06529297 -10.65966797 17.68652344 C-12 19 -12 19 -16 19 C-17.921875 17.03125 -17.921875 17.03125 -19.75 14.5 C-20.67039063 13.24703125 -20.67039063 13.24703125 -21.609375 11.96875 C-22.29773438 10.99421875 -22.29773438 10.99421875 -23 10 C-22.34 9.67 -21.68 9.34 -21 9 C-17.42230149 10.5224249 -14.54631035 12.02930459 -12 15 C-11.67 13.02 -11.34 11.04 -11 9 C-10.34 9 -9.68 9 -9 9 C-8.773125 8.071875 -8.54625 7.14375 -8.3125 6.1875 C-6.69840733 2.26756066 -4.43478793 0 0 0 Z " fill="#99906A" transform="translate(212,195)"/>
<path d="M0 0 C0.33 0.66 0.66 1.32 1 2 C1.66 2 2.32 2 3 2 C1.43119956 6.62707995 -1.05650279 10.25557313 -3.875 14.1875 C-4.30941406 14.81591797 -4.74382812 15.44433594 -5.19140625 16.09179688 C-7.4961235 19.32739842 -9.26824043 21.55053974 -13 23 C-14.37086915 24.29470975 -15.71340837 25.62150897 -17 27 C-16.37404972 23.37783436 -14.83462583 21.07672331 -12.6875 18.125 C-12.05457031 17.24457031 -11.42164063 16.36414063 -10.76953125 15.45703125 C-10.18558594 14.64621094 -9.60164062 13.83539063 -9 13 C-8.29875 11.948125 -7.5975 10.89625 -6.875 9.8125 C-4.65679094 6.4851864 -2.33654574 3.24520242 0 0 Z " fill="#0980CD" transform="translate(258,144)"/>
<path d="M0 0 C4.50802601 1.25805377 7.4912812 2.90407165 11 6 C10.37240135 8.92879371 9.41377341 11.36095629 8 14 C2.64847115 13.67566492 -0.28280043 10.50295176 -4 7 C-3.01 6.34 -2.02 5.68 -1 5 C2.6875 5.875 2.6875 5.875 6 7 C5.67 6.01 5.34 5.02 5 4 C4.34 3.67 3.68 3.34 3 3 C2.67 3.66 2.34 4.32 2 5 C1.34 4.34 0.68 3.68 0 3 C0 2.01 0 1.02 0 0 Z " fill="#C6B91A" transform="translate(150,121)"/>
<path d="M0 0 C0.66 0 1.32 0 2 0 C3.91015625 2.23046875 3.91015625 2.23046875 6.0625 5.1875 C6.77535156 6.15042969 7.48820313 7.11335937 8.22265625 8.10546875 C10.2888037 11.47033746 11 14.08853033 11 18 C10.01 17.67 9.02 17.34 8 17 C8.33 19.64 8.66 22.28 9 25 C5.10949591 21.75791326 4.13187185 18.87575564 3 14 C2.79375 13.195625 2.5875 12.39125 2.375 11.5625 C2.25125 11.046875 2.1275 10.53125 2 10 C2.99 10 3.98 10 5 10 C4.360625 9.0925 3.72125 8.185 3.0625 7.25 C1.38571047 4.60778619 0.46310002 3.0101501 0 0 Z " fill="#2B2B2B" transform="translate(174,185)"/>
<path d="M0 0 C0.66 0 1.32 0 2 0 C-0.04215868 9.01953418 -3.24833846 17.55876154 -7 26 C-7.33 24.68 -7.66 23.36 -8 22 C-8.33 22.33 -8.66 22.66 -9 23 C-9.66 23 -10.32 23 -11 23 C-8.87203328 15.61470375 -5.57360459 5.57360459 0 0 Z " fill="#868643" transform="translate(278,47)"/>
<path d="M0 0 C0.66 0 1.32 0 2 0 C2.66 3.63 3.32 7.26 4 11 C8.32059823 12.09845718 12.61667943 13.17812739 17 14 C16.67 14.99 16.34 15.98 16 17 C12.53058454 16.54177532 9.32604951 16.10868317 6 15 C6 14.34 6 13.68 6 13 C4.35 12.67 2.7 12.34 1 12 C1 10.35 1 8.7 1 7 C-0.65 7.33 -2.3 7.66 -4 8 C-4.33 6.68 -4.66 5.36 -5 4 C-3.35 4 -1.7 4 0 4 C0 2.68 0 1.36 0 0 Z " fill="#3B3B3B" transform="translate(270,148)"/>
<path d="M0 0 C1.32 0.66 2.64 1.32 4 2 C0.9800428 6.59033495 -2.15821631 11.08976172 -5.31640625 15.5859375 C-7.2538642 18.36400946 -9.13855963 21.17061064 -11 24 C-11.33 23.01 -11.66 22.02 -12 21 C-10.5625 18.3125 -10.5625 18.3125 -9 16 C-9.99 15.67 -10.98 15.34 -12 15 C-10.68 15 -9.36 15 -8 15 C-7.8453125 13.329375 -7.8453125 13.329375 -7.6875 11.625 C-7.460625 10.42875 -7.23375 9.2325 -7 8 C-4 6 -4 6 0 6 C0 4.02 0 2.04 0 0 Z " fill="#C8AC3E" transform="translate(224,171)"/>
<path d="M0 0 C3.11373372 1.49920512 6.12228205 3.08152136 9 5 C9 5.66 9 6.32 9 7 C9.66 7.33 10.32 7.66 11 8 C11 8.99 11 9.98 11 11 C11.62599617 12.68236471 12.28752268 14.3523962 13 16 C13.66 16 14.32 16 15 16 C15 17.98 15 19.96 15 22 C12.00732992 19.21372096 10.09125331 16.48877355 8 13 C5.91409281 10.11642275 3.78170914 7.271501 1.64453125 4.42578125 C0 2 0 2 0 0 Z " fill="#F8B709" transform="translate(174,182)"/>
<path d="M0 0 C0.66 0 1.32 0 2 0 C0.70826232 3.39456645 -0.70201261 6.56548555 -2.5625 9.6875 C-2.99691406 10.45449219 -3.43132812 11.22148437 -3.87890625 12.01171875 C-9.3950961 17.18251181 -18.92531927 16.3865973 -26.0625 16.625 C-27.02349609 16.66367187 -27.98449219 16.70234375 -28.97460938 16.7421875 C-31.31622814 16.83538626 -33.65786037 16.92119185 -36 17 C-36 16.67 -36 16.34 -36 16 C-34.79053711 15.91250488 -34.79053711 15.91250488 -33.55664062 15.82324219 C-17.83949535 15.51494566 -17.83949535 15.51494566 -4.4296875 9.0625 C-2.58584278 6.08991384 -1.25755886 3.25124974 0 0 Z " fill="#5E636B" transform="translate(81,306)"/>
<path d="M0 0 C2.5636947 0.28318132 5.12561526 0.57622493 7.6875 0.875 C8.40873047 0.95363281 9.12996094 1.03226563 9.87304688 1.11328125 C13.88515932 1.5896051 17.29975512 2.26300142 21 4 C20.67 4.99 20.34 5.98 20 7 C12.95992045 6.0026554 6.56098608 4.7758018 0 2 C0 1.34 0 0.68 0 0 Z " fill="#58583F" transform="translate(78,148)"/>
<path d="M0 0 C2.31 0.33 4.62 0.66 7 1 C7.33 1.99 7.66 2.98 8 4 C11.16500638 5.05500213 13.30984179 5.0685304 16.625 5 C21.8498104 4.94915026 26.82419435 5.30989258 32 6 C26.37127934 9.75248044 17.60824889 8.929285 11 8 C6.62836675 6.35051801 2.1673302 4.33466041 0 0 Z " fill="#445C8C" transform="translate(179,305)"/>
<path d="M0 0 C5.4739845 2.13272124 7.40913508 7.01639512 10 12 C11.375 15.625 11.375 15.625 12 18 C10.68 17.01 9.36 16.02 8 15 C7.67 15.99 7.34 16.98 7 18 C5.82625827 15.56568361 4.66084237 13.12795818 3.5 10.6875 C3.16613281 9.99720703 2.83226562 9.30691406 2.48828125 8.59570312 C0 3.33984375 0 3.33984375 0 0 Z " fill="#717143" transform="translate(154,51)"/>
<path d="M0 0 C0.33 0.99 0.66 1.98 1 3 C3.01508358 3.73323796 3.01508358 3.73323796 5 4 C4.67 5.98 4.34 7.96 4 10 C3.360625 10.103125 2.72125 10.20625 2.0625 10.3125 C1.0415625 10.6528125 1.0415625 10.6528125 0 11 C-0.33 11.99 -0.66 12.98 -1 14 C-1.66 14 -2.32 14 -3 14 C-2.73958333 12.01432292 -2.47916667 10.02864583 -2.21875 8.04296875 C-1.946767 5.84528294 -1.946767 5.84528294 -2 3 C-1.34 2.01 -0.68 1.02 0 0 Z " fill="#C5C7C7" transform="translate(268,137)"/>
<path d="M0 0 C0.99435406 3.09354597 0.87840996 4.90279155 0 8 C0.62648438 8.06058594 1.25296875 8.12117188 1.8984375 8.18359375 C2.71570313 8.26738281 3.53296875 8.35117188 4.375 8.4375 C5.59316406 8.55931641 5.59316406 8.55931641 6.8359375 8.68359375 C9 9 9 9 11 10 C11 10.66 11 11.32 11 12 C3.68889006 12.3689719 -2.21256822 11.81552726 -9 9 C-5.98968256 8.06576355 -5.13349732 7.95550089 -2 9 C-1.855625 8.071875 -1.71125 7.14375 -1.5625 6.1875 C-1 3 -1 3 0 0 Z " fill="#3C3C39" transform="translate(259,100)"/>
<path d="M0 0 C0.721875 0.103125 1.44375 0.20625 2.1875 0.3125 C0.84338668 1.65661332 -0.53284596 2.96928602 -1.9375 4.25 C-6.15335917 8.42787845 -9.40171838 13.47985408 -12.8125 18.3125 C-13.1425 17.3225 -13.4725 16.3325 -13.8125 15.3125 C-13.1525 14.3225 -12.4925 13.3325 -11.8125 12.3125 C-11.4825 11.28125 -11.1525 10.25 -10.8125 9.1875 C-9.8125 6.3125 -9.8125 6.3125 -7.8125 5.3125 C-6.6678125 4.0440625 -6.6678125 4.0440625 -5.5 2.75 C-2.8125 0.3125 -2.8125 0.3125 0 0 Z " fill="#627D8F" transform="translate(282.8125,220.6875)"/>
<path d="M0 0 C2.375 0.1875 2.375 0.1875 5 1 C6.3125 3.5625 6.3125 3.5625 7 6 C8.32 6 9.64 6 11 6 C11 6.99 11 7.98 11 9 C6.25 8.125 6.25 8.125 4 7 C3.67 7.66 3.34 8.32 3 9 C1.68 8.34 0.36 7.68 -1 7 C-0.67 4.69 -0.34 2.38 0 0 Z " fill="#EDDD06" transform="translate(145,119)"/>
<path d="M0 0 C0.66 0 1.32 0 2 0 C2.12117188 0.69867188 2.24234375 1.39734375 2.3671875 2.1171875 C2.53476562 3.02726563 2.70234375 3.93734375 2.875 4.875 C3.03742188 5.77992188 3.19984375 6.68484375 3.3671875 7.6171875 C3.83044703 10.16505988 3.83044703 10.16505988 6 12 C6 13.32 6 14.64 6 16 C5.34 16.33 4.68 16.66 4 17 C3.67 17.99 3.34 18.98 3 20 C1.35 20 -0.3 20 -2 20 C-1.01 19.67 -0.02 19.34 1 19 C1 17.35 1 15.7 1 14 C1.66 14 2.32 14 3 14 C2.69964844 13.24074219 2.39929688 12.48148438 2.08984375 11.69921875 C1.70957031 10.70535156 1.32929688 9.71148437 0.9375 8.6875 C0.55464844 7.70136719 0.17179687 6.71523437 -0.22265625 5.69921875 C-1 3 -1 3 0 0 Z " fill="#303030" transform="translate(289,142)"/>
<path d="M0 0 C0.99 0.66 1.98 1.32 3 2 C1.35 4.31 -0.3 6.62 -2 9 C-4.97 8.505 -4.97 8.505 -8 8 C-8.33 8.66 -8.66 9.32 -9 10 C-9.66 9.34 -10.32 8.68 -11 8 C-6.25 4 -6.25 4 -4 4 C-2.62689293 2.70766393 -1.28965176 1.37562854 0 0 Z " fill="#F6E015" transform="translate(231,163)"/>
<path d="M0 0 C0.78375 0.04125 1.5675 0.0825 2.375 0.125 C2.375 0.785 2.375 1.445 2.375 2.125 C3.035 2.455 3.695 2.785 4.375 3.125 C3.1010411 5.16333424 1.76438077 7.16352126 0.375 9.125 C-0.285 9.125 -0.945 9.125 -1.625 9.125 C-1.955 10.445 -2.285 11.765 -2.625 13.125 C-4.03192958 9.34387676 -5.07530866 6.17777796 -4.625 2.125 C-2.625 0.125 -2.625 0.125 0 0 Z M-0.625 3.125 C-0.955 4.115 -1.285 5.105 -1.625 6.125 C-0.635 6.125 0.355 6.125 1.375 6.125 C1.375 5.135 1.375 4.145 1.375 3.125 C0.715 3.125 0.055 3.125 -0.625 3.125 Z " fill="#161616" transform="translate(18.625,286.875)"/>
<path d="M0 0 C1.953125 0.8671875 1.953125 0.8671875 4 2 C4.75 4.125 4.75 4.125 5 6 C3.35 5.67 1.7 5.34 0 5 C-0.66 6.32 -1.32 7.64 -2 9 C-2.66 9 -3.32 9 -4 9 C-4.268125 9.928125 -4.53625 10.85625 -4.8125 11.8125 C-5.91148371 14.76240366 -6.62418561 16.05615186 -9 18 C-8.51539656 12.87704937 -6.87051506 9.81502151 -3.9375 5.625 C-3.20402344 4.56539062 -2.47054687 3.50578125 -1.71484375 2.4140625 C-1.14894531 1.61742187 -0.58304688 0.82078125 0 0 Z " fill="#758388" transform="translate(124,237)"/>
<path d="M0 0 C0.763125 0.309375 1.52625 0.61875 2.3125 0.9375 C4.18789677 1.67893593 6.08684652 2.36228217 8 3 C9.02019573 3.9793879 10.02149805 4.97895449 11 6 C11.66 6.33 12.32 6.66 13 7 C12.01 8.32 11.02 9.64 10 11 C6.57802415 9.57913611 4.90089977 7.93029236 2.75 4.9375 C1.96882812 3.86822266 1.96882812 3.86822266 1.171875 2.77734375 C0 1 0 1 0 0 Z " fill="#C27110" transform="translate(189,204)"/>
<path d="M0 0 C0 0.66 0 1.32 0 2 C-2.12124966 2.86343824 -4.24713072 3.71550648 -6.375 4.5625 C-8.15003906 5.27599609 -8.15003906 5.27599609 -9.9609375 6.00390625 C-13 7 -13 7 -15 6 C-14.67 5.67 -14.34 5.34 -14 5 C-14.99 4.34 -15.98 3.68 -17 3 C-5.47835991 -0.44419134 -5.47835991 -0.44419134 0 0 Z " fill="#4C4C33" transform="translate(361,140)"/>
<path d="M0 0 C0.33 0.66 0.66 1.32 1 2 C0.14453125 4.27734375 0.14453125 4.27734375 -1.1875 6.9375 C-1.82751953 8.25041016 -1.82751953 8.25041016 -2.48046875 9.58984375 C-4.0602418 12.09555061 -5.53427077 13.40017996 -8 15 C-7.34 13.35 -6.68 11.7 -6 10 C-6.66 10 -7.32 10 -8 10 C-6.70243902 4.43902439 -6.70243902 4.43902439 -3.5 2.4375 C-2.675 1.963125 -1.85 1.48875 -1 1 C-0.67 0.67 -0.34 0.34 0 0 Z " fill="#128CD8" transform="translate(267,136)"/>
<path d="M0 0 C1.65 0 3.3 0 5 0 C3.44759763 4.96768758 0.48945219 9.17867057 -3 13 C-3.66 13 -4.32 13 -5 13 C-4.690625 12.236875 -4.38125 11.47375 -4.0625 10.6875 C-3.32106407 8.81210323 -2.63771783 6.91315348 -2 5 C-2.66 4.34 -3.32 3.68 -4 3 C-3.01 2.67 -2.02 2.34 -1 2 C-0.67 1.34 -0.34 0.68 0 0 Z " fill="#D0DBDB" transform="translate(287,162)"/>
<path d="M0 0 C0.66 0 1.32 0 2 0 C2.44117322 4.49996683 2.52867608 6.34611117 -0.375 9.9375 C-3 12 -3 12 -5 12 C-5.70731186 7.33174173 -3.92277529 4.96719769 -1.2890625 1.35546875 C-0.86367187 0.90816406 -0.43828125 0.46085938 0 0 Z " fill="#737373" transform="translate(251,142)"/>
<path d="M0 0 C0.66 0.66 1.32 1.32 2 2 C0.68 3.32 -0.64 4.64 -2 6 C-1.360625 6.12375 -0.72125 6.2475 -0.0625 6.375 C0.618125 6.58125 1.29875 6.7875 2 7 C2.33 7.66 2.66 8.32 3 9 C1.68 9 0.36 9 -1 9 C-1 11.97 -1 14.94 -1 18 C-1.33 18 -1.66 18 -2 18 C-2.33 14.7 -2.66 11.4 -3 8 C-3.99 8.33 -4.98 8.66 -6 9 C-4.47291037 5.56404834 -2.40072955 2.88087546 0 0 Z " fill="#A8B5B5" transform="translate(294,134)"/>
<path d="M0 0 C4.50802601 1.25805377 7.4912812 2.90407165 11 6 C10.42655063 8.86724686 10.1385485 9.8614515 8 12 C6 9 6 9 5.5 6.375 C5.335 5.59125 5.17 4.8075 5 4 C4.34 3.67 3.68 3.34 3 3 C2.67 3.66 2.34 4.32 2 5 C1.34 4.34 0.68 3.68 0 3 C0 2.01 0 1.02 0 0 Z " fill="#ACA135" transform="translate(150,121)"/>
<path d="M0 0 C0.66 0.66 1.32 1.32 2 2 C1.34 4.31 0.68 6.62 0 9 C1.32 9 2.64 9 4 9 C3.67 10.65 3.34 12.3 3 14 C1.68 13.34 0.36 12.68 -1 12 C-1 11.34 -1 10.68 -1 10 C-1.99 10.33 -2.98 10.66 -4 11 C-4.66 9.68 -5.32 8.36 -6 7 C-3.525 7.99 -3.525 7.99 -1 9 C-0.67 6.03 -0.34 3.06 0 0 Z " fill="#B7B8B8" transform="translate(172,182)"/>
<path d="M0 0 C1.98 0.99 1.98 0.99 4 2 C4 2.99 4 3.98 4 5 C4.99 5.33 5.98 5.66 7 6 C7.474375 6.66 7.94875 7.32 8.4375 8 C10.22804402 10.29189635 11.18127263 10.61121002 14 11 C13.67 11.99 13.34 12.98 13 14 C9.42838865 13.74354454 8.23041904 13.25052541 5.76171875 10.56640625 C4.73498047 9.07947266 4.73498047 9.07947266 3.6875 7.5625 C2.99011719 6.57378906 2.29273438 5.58507812 1.57421875 4.56640625 C0 2 0 2 0 0 Z " fill="#FECA04" transform="translate(165,170)"/>
<path d="M0 0 C-2.59980864 3.32957948 -5.11064555 3.61761712 -9.1875 4.1875 C-10.27417969 4.34605469 -11.36085938 4.50460938 -12.48046875 4.66796875 C-13.31191406 4.77753906 -14.14335937 4.88710937 -15 5 C-15.33 4.01 -15.66 3.02 -16 2 C-10.51324804 0.13216954 -5.77807024 -0.2358396 0 0 Z " fill="#EEE21C" transform="translate(349,144)"/>
<path d="M0 0 C5.02692063 0.45699278 8.14896261 2.99241748 12 6 C11.01 6.33 10.02 6.66 9 7 C9.33 7.66 9.66 8.32 10 9 C6.04322598 7.32598022 3.15535787 4.86850715 0 2 C0 1.34 0 0.68 0 0 Z " fill="#7B7B51" transform="translate(106,92)"/>
<path d="M0 0 C1.32 0.33 2.64 0.66 4 1 C3.5359375 2.1446875 3.5359375 2.1446875 3.0625 3.3125 C2.32106407 5.18789677 1.63771783 7.08684652 1 9 C-1.0625 10.1875 -1.0625 10.1875 -3 11 C-3 6.32674845 -1.92757363 4.17640953 0 0 Z " fill="#FDAB07" transform="translate(211,186)"/>
<path d="M0 0 C2.31 0.33 4.62 0.66 7 1 C7.0825 1.78375 7.165 2.5675 7.25 3.375 C7.72806339 6.14749104 7.72806339 6.14749104 10.0625 7.3125 C10.701875 7.539375 11.34125 7.76625 12 8 C11.34 8 10.68 8 10 8 C10 8.66 10 9.32 10 10 C7 9 7 9 5.5625 6.9375 C5.046875 6.298125 4.53125 5.65875 4 5 C2.68 5 1.36 5 0 5 C0 3.35 0 1.7 0 0 Z " fill="#BCC2C2" transform="translate(264,154)"/>
<path d="M0 0 C1.65 1.65 3.3 3.3 5 5 C4.67 5.99 4.34 6.98 4 8 C3.63261719 7.51917969 3.26523438 7.03835937 2.88671875 6.54296875 C0.25159557 4.38795083 -1.82505636 4.49327654 -5.1875 4.3125 C-6.27417969 4.24675781 -7.36085937 4.18101562 -8.48046875 4.11328125 C-9.31191406 4.07589844 -10.14335937 4.03851563 -11 4 C-11 3.01 -11 2.02 -11 1 C-7.37 1.33 -3.74 1.66 0 2 C0 1.34 0 0.68 0 0 Z " fill="#B0B9B7" transform="translate(158,163)"/>
<path d="M0 0 C0.66 0.33 1.32 0.66 2 1 C-2.95 5.95 -7.9 10.9 -13 16 C-13 11.92412524 -11.74008328 11.01409161 -9 8 C-6.38537946 5.60368758 -3.70031809 3.29866895 -1 1 C-0.67 0.67 -0.34 0.34 0 0 Z " fill="#A7A703" transform="translate(179,128)"/>
<path d="M0 0 C0 0.33 0 0.66 0 1 C-8.04927976 2.29901921 -15.83759432 3.33853295 -24 3 C-24 2.67 -24 2.34 -24 2 C-16.09388645 -0.63537118 -8.23134837 -0.17981101 0 0 Z " fill="#434E67" transform="translate(34,324)"/>
<path d="M0 0 C0.66 0 1.32 0 2 0 C5.45277325 4.23798336 7.58742287 8.49897163 8 14 C7.38125 13.649375 6.7625 13.29875 6.125 12.9375 C5.42375 12.628125 4.7225 12.31875 4 12 C3.01 12.495 3.01 12.495 2 13 C2 12.01 2 11.02 2 10 C2.99 10 3.98 10 5 10 C4.360625 9.0925 3.72125 8.185 3.0625 7.25 C1.38571047 4.60778619 0.46310002 3.0101501 0 0 Z " fill="#545452" transform="translate(174,185)"/>
<path d="M0 0 C1.32 0.66 2.64 1.32 4 2 C0.375 7.75 0.375 7.75 -3 10 C-3 9.34 -3 8.68 -3 8 C-3.66 7.67 -4.32 7.34 -5 7 C-3.35 6.67 -1.7 6.34 0 6 C0 4.02 0 2.04 0 0 Z M-7 8 C-6.34 8 -5.68 8 -5 8 C-5 8.66 -5 9.32 -5 10 C-5.66 10 -6.32 10 -7 10 C-7 9.34 -7 8.68 -7 8 Z " fill="#C4AA37" transform="translate(224,171)"/>
<path d="M0 0 C0 2.33333333 0 4.66666667 0 7 C2.97 7.495 2.97 7.495 6 8 C6 8.33 6 8.66 6 9 C2.7 9.33 -0.6 9.66 -4 10 C-4.25 7.25 -4.25 7.25 -4 4 C-2 1.625 -2 1.625 0 0 Z " fill="#294A7A" transform="translate(4,319)"/>
<path d="M0 0 C-3.34765581 2.23177054 -4.47061285 2.24633323 -8.375 2.1875 C-9.31085938 2.18105469 -10.24671875 2.17460937 -11.2109375 2.16796875 C-13.89568683 2.00628217 -16.38056603 1.5953259 -19 1 C-19 0.67 -19 0.34 -19 0 C-12.42150508 -0.95494281 -6.58183362 -0.8931507 0 0 Z " fill="#45649E" transform="translate(211,311)"/>
<path d="M0 0 C-0.17298401 2.33528415 -0.70225369 3.69177582 -2.33203125 5.37890625 C-6.57211538 9 -6.57211538 9 -9 9 C-8.82701599 6.66471585 -8.29774631 5.30822418 -6.66796875 3.62109375 C-2.42788462 0 -2.42788462 0 0 0 Z " fill="#9A9A6B" transform="translate(331,84)"/>
<path d="M0 0 C5.0302076 0.52537724 10.01885239 1.10594786 15 2 C14.67 2.99 14.34 3.98 14 5 C11.36 4.67 8.72 4.34 6 4 C6 3.34 6 2.68 6 2 C3.03 1.505 3.03 1.505 0 1 C0 0.67 0 0.34 0 0 Z " fill="#B0AB32" transform="translate(84,150)"/>
<path d="M0 0 C0.33 0 0.66 0 1 0 C1 2.64 1 5.28 1 8 C-2.63 8 -6.26 8 -10 8 C-10 7.01 -10 6.02 -10 5 C-7.03 5.33 -4.06 5.66 -1 6 C-0.67 4.02 -0.34 2.04 0 0 Z " fill="#44442C" transform="translate(157,157)"/>
<path d="M0 0 C1.65 0 3.3 0 5 0 C5.53012738 1.28788008 6.0488329 2.58046678 6.5625 3.875 C6.99755859 4.95394531 6.99755859 4.95394531 7.44140625 6.0546875 C8 8 8 8 7 10 C5.83043409 8.52312468 4.66441854 7.04343707 3.5 5.5625 C2.8503125 4.73878906 2.200625 3.91507813 1.53125 3.06640625 C0 1 0 1 0 0 Z " fill="#AAB8BB" transform="translate(173,199)"/>
<path d="M0 0 C3 0 3 0 5 1 C2.17277289 3.93193923 -0.80521641 6.47780243 -4 9 C-4.66 9.66 -5.32 10.32 -6 11 C-5.39005934 7.93674247 -4.42271989 5.79949366 -2.625 3.25 C-2.20476562 2.63640625 -1.78453125 2.0228125 -1.3515625 1.390625 C-0.90554687 0.93171875 -0.45953125 0.4728125 0 0 Z " fill="#076BA4" transform="translate(247,160)"/>
<path d="M0 0 C0 0.66 0 1.32 0 2 C0.66 2 1.32 2 2 2 C2 2.66 2 3.32 2 4 C2.66 4 3.32 4 4 4 C4.33 5.32 4.66 6.64 5 8 C2.03 6.35 -0.94 4.7 -4 3 C-4 2.34 -4 1.68 -4 1 C-2 0 -2 0 0 0 Z " fill="#364652" transform="translate(135,249)"/>
<path d="M0 0 C0.66 0 1.32 0 2 0 C1.73781251 4.4571874 1.42288711 6.51522698 -1.5625 9.9375 C-2.366875 10.618125 -3.17125 11.29875 -4 12 C-3.33989524 9.15449988 -2.48275034 6.47674001 -1.4375 3.75 C-1.16808594 3.04359375 -0.89867187 2.3371875 -0.62109375 1.609375 C-0.41613281 1.07828125 -0.21117187 0.5471875 0 0 Z " fill="#497EB2" transform="translate(273,227)"/>
<path d="M0 0 C3.53647504 1.67517239 4.7911563 2.49280817 6.3125 6.1875 C6.539375 7.115625 6.76625 8.04375 7 9 C5.68 8.01 4.36 7.02 3 6 C2.67 6.99 2.34 7.98 2 9 C0.14223235 5.86501708 -0.20140476 3.62528568 0 0 Z " fill="#8D8D35" transform="translate(159,60)"/>
<path d="M0 0 C0.66 0 1.32 0 2 0 C0.43358249 4.30764815 -1.68336156 8.06171464 -4 12 C-5.46726798 8.18510326 -4.43336419 5.70988378 -3 2 C-2.34 2 -1.68 2 -1 2 C-0.67 1.34 -0.34 0.68 0 0 Z " fill="#5E7292" transform="translate(94,284)"/>
<path d="M0 0 C3 1 3 1 4.3125 2.6875 C5.28035003 5.94299554 4.25678371 7.92786205 3 11 C2 9 2 9 2 5 C0.68 5 -0.64 5 -2 5 C-1.34 3.35 -0.68 1.7 0 0 Z " fill="#6F7373" transform="translate(270,136)"/>
<path d="M0 0 C2.5 1.625 2.5 1.625 5 4 C5.3125 7.25 5.3125 7.25 5 10 C4.01 9.67 3.02 9.34 2 9 C1.26953125 6.93359375 1.26953125 6.93359375 0.8125 4.4375 C0.65394531 3.61121094 0.49539062 2.78492188 0.33203125 1.93359375 C0.16767578 0.97646484 0.16767578 0.97646484 0 0 Z " fill="#1D1D1C" transform="translate(180,193)"/>
<path d="M0 0 C4.875 4.625 4.875 4.625 6 8 C4 7 2 6 0 5 C0 4.34 0 3.68 0 3 C-0.66 3 -1.32 3 -2 3 C-1 1 -1 1 0 0 Z " fill="#BDC9C9" transform="translate(300,142)"/>
<path d="M0 0 C1.2065625 0.0309375 1.2065625 0.0309375 2.4375 0.0625 C2.4375 0.7225 2.4375 1.3825 2.4375 2.0625 C3.0975 2.3925 3.7575 2.7225 4.4375 3.0625 C3.4475 4.0525 2.4575 5.0425 1.4375 6.0625 C1.4375 5.0725 1.4375 4.0825 1.4375 3.0625 C0.7775 3.0625 0.1175 3.0625 -0.5625 3.0625 C-0.8925 3.7225 -1.2225 4.3825 -1.5625 5.0625 C-1.5625 4.0725 -1.5625 3.0825 -1.5625 2.0625 C-2.2225 1.7325 -2.8825 1.4025 -3.5625 1.0625 C-2.5625 0.0625 -2.5625 0.0625 0 0 Z " fill="#0B0B0B" transform="translate(18.5625,286.9375)"/>
<path d="M0 0 C0.66 0.33 1.32 0.66 2 1 C1.38545304 4.99455527 -0.70646737 7.74466336 -3 11 C-3.33 10.01 -3.66 9.02 -4 8 C-3.34 8 -2.68 8 -2 8 C-1.855625 6.865625 -1.71125 5.73125 -1.5625 4.5625 C-1 1 -1 1 0 0 Z " fill="#54729B" transform="translate(246,266)"/>
<path d="M0 0 C1.485 0.99 1.485 0.99 3 2 C3 2.66 3 3.32 3 4 C3.66 4 4.32 4 5 4 C5 5.98 5 7.96 5 10 C1.32769295 6.92000054 0.43197635 4.7517398 0 0 Z " fill="#BF750F" transform="translate(184,194)"/>
<path d="M0 0 C-2.93828597 2.50298434 -5.17902761 3.46930939 -9 4 C-8.67 3.34 -8.34 2.68 -8 2 C-8.99 1.34 -9.98 0.68 -11 0 C-3.375 -1.125 -3.375 -1.125 0 0 Z " fill="#989840" transform="translate(355,143)"/>
<path d="M0 0 C0.66 0 1.32 0 2 0 C1.71905418 1.8141927 1.42493567 3.62635001 1.125 5.4375 C0.88136719 6.95150391 0.88136719 6.95150391 0.6328125 8.49609375 C0.42398438 9.32238281 0.21515625 10.14867187 0 11 C-0.99 11.495 -0.99 11.495 -2 12 C-2.05395478 10.37536158 -2.09277195 8.75021459 -2.125 7.125 C-2.14820313 6.22007812 -2.17140625 5.31515625 -2.1953125 4.3828125 C-2 2 -2 2 0 0 Z " fill="#151515" transform="translate(255,137)"/>
<path d="M0 0 C1.65 0 3.3 0 5 0 C3.19587357 3.26460973 2.16605307 4.88929795 -1 7 C-1.33 6.01 -1.66 5.02 -2 4 C-1.01 4 -0.02 4 1 4 C0.67 2.68 0.34 1.36 0 0 Z " fill="#537AC1" transform="translate(222,298)"/>
<path d="M0 0 C1.65 0 3.3 0 5 0 C5 4 5 4 3 7 C0 3.375 0 3.375 0 0 Z " fill="#F2A60B" transform="translate(180,189)"/>
<path d="M0 0 C0.66 0 1.32 0 2 0 C2 1.65 2 3.3 2 5 C0.02 5.99 0.02 5.99 -2 7 C-1.125 1.125 -1.125 1.125 0 0 Z " fill="#B2B2B2" transform="translate(251,142)"/>
<path d="M0 0 C0.66 0.33 1.32 0.66 2 1 C-0.64 3.97 -3.28 6.94 -6 10 C-6.66 9.67 -7.32 9.34 -8 9 C-5.36 6.03 -2.72 3.06 0 0 Z " fill="#0F6A9B" transform="translate(270,130)"/>
<path d="M0 0 C0.99 0 1.98 0 3 0 C4 3 4 3 2.6875 5.6875 C2.130625 6.450625 1.57375 7.21375 1 8 C0.34 8 -0.32 8 -1 8 C-0.67 5.36 -0.34 2.72 0 0 Z " fill="#4671B7" transform="translate(238,275)"/>
<path d="M0 0 C0.928125 0.33 1.85625 0.66 2.8125 1 C5.92029291 2.14967004 5.92029291 2.14967004 9 2 C8.01 3.32 7.02 4.64 6 6 C3.00306862 5.00102287 1.97290587 4.34869747 0 2 C0 1.34 0 0.68 0 0 Z " fill="#637278" transform="translate(193,225)"/>
<path d="M0 0 C1.98 0.66 3.96 1.32 6 2 C6 1.34 6 0.68 6 0 C6.66 0.33 7.32 0.66 8 1 C7.01 2.32 6.02 3.64 5 5 C3.0625 4.1875 3.0625 4.1875 1 3 C0.67 2.01 0.34 1.02 0 0 Z " fill="#6D5235" transform="translate(194,210)"/>
<path d="M0 0 C0.66 0.33 1.32 0.66 2 1 C2.36548445 2.32488113 2.6937566 3.66018514 3 5 C3.63654342 6.3479743 4.29605388 7.68596724 5 9 C3.02 8.34 1.04 7.68 -1 7 C-0.67 4.69 -0.34 2.38 0 0 Z " fill="#808080" transform="translate(173,184)"/>
<path d="M0 0 C3.63 0 7.26 0 11 0 C10.67 0.99 10.34 1.98 10 3 C3.375 2.25 3.375 2.25 0 0 Z " fill="#7F7F7F" transform="translate(276,162)"/>
<path d="M0 0 C1.32 0 2.64 0 4 0 C4.33 0.99 4.66 1.98 5 3 C3.0625 6.1875 3.0625 6.1875 1 9 C0.67 8.01 0.34 7.02 0 6 C1.4375 3.3125 1.4375 3.3125 3 1 C2.01 0.67 1.02 0.34 0 0 Z " fill="#A39356" transform="translate(212,186)"/>
<path d="M0 0 C0.99 0.66 1.98 1.32 3 2 C1.02 4.97 1.02 4.97 -1 8 C-1.33 7.34 -1.66 6.68 -2 6 C-1.67 5.01 -1.34 4.02 -1 3 C-1.66 2.67 -2.32 2.34 -3 2 C-2.01 1.34 -1.02 0.68 0 0 Z " fill="#AFA73E" transform="translate(231,163)"/>
<path d="M0 0 C-1.15173355 2.46800047 -2.04783565 4.04783565 -4 6 C-4.99 6 -5.98 6 -7 6 C-5.81636731 2.44910192 -3.99368042 0 0 0 Z " fill="#145D80" transform="translate(110,154)"/>
<path d="M0 0 C0.33 0 0.66 0 1 0 C1.125 5.75 1.125 5.75 0 8 C-0.66 8 -1.32 8 -2 8 C-3.125 4.25 -3.125 4.25 -2 2 C-1.34 2 -0.68 2 0 2 C0 1.34 0 0.68 0 0 Z " fill="#B1B162" transform="translate(274,58)"/>
<path d="M0 0 C1 2 1 2 0.1875 4.5 C-1 7 -1 7 -3 9 C-4.125 5.25 -4.125 5.25 -3 3 C-2.34 3 -1.68 3 -1 3 C-0.67 2.01 -0.34 1.02 0 0 Z " fill="#E7941A" transform="translate(204,201)"/>
<path d="M0 0 C-0.75 1.9375 -0.75 1.9375 -2 4 C-4.125 4.75 -4.125 4.75 -6 5 C-6 4.01 -6 3.02 -6 2 C-2.25 0 -2.25 0 0 0 Z " fill="#C49342" transform="translate(212,195)"/>
<path d="M0 0 C0.99 0.33 1.98 0.66 3 1 C3 1.66 3 2.32 3 3 C2.01 3 1.02 3 0 3 C0.33 4.32 0.66 5.64 1 7 C0.01 7.495 0.01 7.495 -1 8 C-1.93065133 5.39417629 -2.14917407 4.35801776 -1.0625 1.75 C-0.711875 1.1725 -0.36125 0.595 0 0 Z " fill="#8E8E8E" transform="translate(176,192)"/>
<path d="M0 0 C0.33 0.66 0.66 1.32 1 2 C-0.28062485 3.7074998 -1.61767557 5.37373596 -3 7 C-3.66 7 -4.32 7 -5 7 C-3.70700306 4.11562221 -2.34058637 2.12780579 0 0 Z " fill="#0398FB" transform="translate(247,164)"/>
<path d="M0 0 C0.66 0.33 1.32 0.66 2 1 C0.75023244 4.65316671 0.32901247 5.78065836 -3 8 C-1.125 1.125 -1.125 1.125 0 0 Z " fill="#7BBEE0" transform="translate(262,143)"/>
<path d="M0 0 C2.02045442 0.60183749 4.02111039 1.27306096 6 2 C6.33 2.66 6.66 3.32 7 4 C5.68 3.67 4.36 3.34 3 3 C2.67 3.66 2.34 4.32 2 5 C1.34 4.34 0.68 3.68 0 3 C0 2.01 0 1.02 0 0 Z " fill="#998B1B" transform="translate(150,121)"/>
<path d="M0 0 C0.66 0 1.32 0 2 0 C2 0.66 2 1.32 2 2 C1.34 2 0.68 2 0 2 C0 1.34 0 0.68 0 0 Z " fill="#000000" transform="translate(216,192)"/>
<path d="" fill="#000000" transform="translate(0,0)"/>
<path d="" fill="#000000" transform="translate(0,0)"/>
<path d="" fill="#000000" transform="translate(0,0)"/>
<path d="" fill="#000000" transform="translate(0,0)"/>
<path d="" fill="#000000" transform="translate(0,0)"/>
<path d="" fill="#000000" transform="translate(0,0)"/>
<path d="" fill="#000000" transform="translate(0,0)"/>
<path d="" fill="#000000" transform="translate(0,0)"/>
<path d="" fill="#000000" transform="translate(0,0)"/>
<path d="" fill="#000000" transform="translate(0,0)"/>
<path d="" fill="#000000" transform="translate(0,0)"/>
<path d="" fill="#000000" transform="translate(0,0)"/>
<path d="" fill="#000000" transform="translate(0,0)"/>
<path d="" fill="#000000" transform="translate(0,0)"/>
<path d="" fill="#000000" transform="translate(0,0)"/>
<path d="" fill="#000000" transform="translate(0,0)"/>
<path d="" fill="#000000" transform="translate(0,0)"/>
<path d="" fill="#000000" transform="translate(0,0)"/>
<path d="" fill="#000000" transform="translate(0,0)"/>
<path d="" fill="#000000" transform="translate(0,0)"/>
<path d="" fill="#000000" transform="translate(0,0)"/>
<path d="" fill="#000000" transform="translate(0,0)"/>
<path d="" fill="#000000" transform="translate(0,0)"/>
<path d="" fill="#000000" transform="translate(0,0)"/>
<path d="" fill="#000000" transform="translate(0,0)"/>
<path d="" fill="#000000" transform="translate(0,0)"/>
<path d="" fill="#000000" transform="translate(0,0)"/>
<path d="" fill="#000000" transform="translate(0,0)"/>
<path d="" fill="#000000" transform="translate(0,0)"/>
<path d="" fill="#000000" transform="translate(0,0)"/>
<path d="" fill="#000000" transform="translate(0,0)"/>
<path d="" fill="#000000" transform="translate(0,0)"/>
<path d="" fill="#000000" transform="translate(0,0)"/>
<path d="" fill="#000000" transform="translate(0,0)"/>
<path d="" fill="#000000" transform="translate(0,0)"/>
<path d="" fill="#000000" transform="translate(0,0)"/>
<path d="" fill="#000000" transform="translate(0,0)"/>
<path d="" fill="#000000" transform="translate(0,0)"/>
<path d="" fill="#000000" transform="translate(0,0)"/>
<path d="" fill="#000000" transform="translate(0,0)"/>
<path d="" fill="#000000" transform="translate(0,0)"/>
<path d="" fill="#000000" transform="translate(0,0)"/>
<path d="" fill="#000000" transform="translate(0,0)"/>
<path d="" fill="#000000" transform="translate(0,0)"/>
<path d="" fill="#000000" transform="translate(0,0)"/>
<path d="" fill="#000000" transform="translate(0,0)"/>
<path d="" fill="#000000" transform="translate(0,0)"/>
<path d="" fill="#000000" transform="translate(0,0)"/>
<path d="" fill="#000000" transform="translate(0,0)"/>
<path d="" fill="#000000" transform="translate(0,0)"/>
<path d="" fill="#000000" transform="translate(0,0)"/>
<path d="" fill="#000000" transform="translate(0,0)"/>
<path d="" fill="#000000" transform="translate(0,0)"/>
<path d="" fill="#000000" transform="translate(0,0)"/>
<path d="" fill="#000000" transform="translate(0,0)"/>
<path d="" fill="#000000" transform="translate(0,0)"/>
<path d="" fill="#000000" transform="translate(0,0)"/>
<path d="" fill="#000000" transform="translate(0,0)"/>
<path d="" fill="#000000" transform="translate(0,0)"/>
<path d="" fill="#000000" transform="translate(0,0)"/>
<path d="" fill="#000000" transform="translate(0,0)"/>
<path d="" fill="#000000" transform="translate(0,0)"/>
<path d="" fill="#000000" transform="translate(0,0)"/>
<path d="" fill="#000000" transform="translate(0,0)"/>
<path d="" fill="#000000" transform="translate(0,0)"/>
<path d="" fill="#000000" transform="translate(0,0)"/>
<path d="" fill="#000000" transform="translate(0,0)"/>
<path d="" fill="#000000" transform="translate(0,0)"/>
<path d="" fill="#000000" transform="translate(0,0)"/>
<path d="" fill="#000000" transform="translate(0,0)"/>
<path d="" fill="#000000" transform="translate(0,0)"/>
<path d="" fill="#000000" transform="translate(0,0)"/>
<path d="" fill="#000000" transform="translate(0,0)"/>
<path d="" fill="#000000" transform="translate(0,0)"/>
<path d="" fill="#000000" transform="translate(0,0)"/>
<path d="" fill="#000000" transform="translate(0,0)"/>
<path d="" fill="#000000" transform="translate(0,0)"/>
<path d="" fill="#000000" transform="translate(0,0)"/>
<path d="" fill="#000000" transform="translate(0,0)"/>
<path d="" fill="#000000" transform="translate(0,0)"/>
<path d="" fill="#000000" transform="translate(0,0)"/>
<path d="" fill="#000000" transform="translate(0,0)"/>
<path d="" fill="#000000" transform="translate(0,0)"/>
<path d="" fill="#000000" transform="translate(0,0)"/>
<path d="" fill="#000000" transform="translate(0,0)"/>
<path d="" fill="#000000" transform="translate(0,0)"/>
<path d="" fill="#000000" transform="translate(0,0)"/>
<path d="" fill="#000000" transform="translate(0,0)"/>
<path d="" fill="#000000" transform="translate(0,0)"/>
<path d="" fill="#000000" transform="translate(0,0)"/>
<path d="" fill="#000000" transform="translate(0,0)"/>
<path d="" fill="#000000" transform="translate(0,0)"/>
<path d="" fill="#000000" transform="translate(0,0)"/>
<path d="" fill="#000000" transform="translate(0,0)"/>
<path d="" fill="#000000" transform="translate(0,0)"/>
<path d="" fill="#000000" transform="translate(0,0)"/>
<path d="" fill="#000000" transform="translate(0,0)"/>
<path d="" fill="#000000" transform="translate(0,0)"/>
<path d="" fill="#000000" transform="translate(0,0)"/>
<path d="" fill="#000000" transform="translate(0,0)"/>
<path d="" fill="#000000" transform="translate(0,0)"/>
<path d="" fill="#000000" transform="translate(0,0)"/>
<path d="" fill="#000000" transform="translate(0,0)"/>
<path d="" fill="#000000" transform="translate(0,0)"/>
<path d="" fill="#000000" transform="translate(0,0)"/>
<path d="" fill="#000000" transform="translate(0,0)"/>
<path d="" fill="#000000" transform="translate(0,0)"/>
<path d="" fill="#000000" transform="translate(0,0)"/>
<path d="" fill="#000000" transform="translate(0,0)"/>
<path d="" fill="#000000" transform="translate(0,0)"/>
<path d="" fill="#000000" transform="translate(0,0)"/>
<path d="" fill="#000000" transform="translate(0,0)"/>
<path d="" fill="#000000" transform="translate(0,0)"/>
<path d="" fill="#000000" transform="translate(0,0)"/>
<path d="" fill="#000000" transform="translate(0,0)"/>
<path d="" fill="#000000" transform="translate(0,0)"/>
<path d="" fill="#000000" transform="translate(0,0)"/>
<path d="" fill="#000000" transform="translate(0,0)"/>
<path d="" fill="#000000" transform="translate(0,0)"/>
<path d="" fill="#000000" transform="translate(0,0)"/>
<path d="" fill="#000000" transform="translate(0,0)"/>
<path d="" fill="#000000" transform="translate(0,0)"/>
<path d="" fill="#000000" transform="translate(0,0)"/>
<path d="" fill="#000000" transform="translate(0,0)"/>
<path d="" fill="#000000" transform="translate(0,0)"/>
<path d="" fill="#000000" transform="translate(0,0)"/>
<path d="" fill="#000000" transform="translate(0,0)"/>
<path d="" fill="#000000" transform="translate(0,0)"/>
<path d="" fill="#000000" transform="translate(0,0)"/>
<path d="" fill="#000000" transform="translate(0,0)"/>
<path d="" fill="#000000" transform="translate(0,0)"/>
<path d="" fill="#000000" transform="translate(0,0)"/>
<path d="" fill="#000000" transform="translate(0,0)"/>
<path d="" fill="#000000" transform="translate(0,0)"/>
<path d="" fill="#000000" transform="translate(0,0)"/>
<path d="" fill="#000000" transform="translate(0,0)"/>
<path d="" fill="#000000" transform="translate(0,0)"/>
<path d="" fill="#000000" transform="translate(0,0)"/>
<path d="" fill="#000000" transform="translate(0,0)"/>
<path d="" fill="#000000" transform="translate(0,0)"/>
<path d="" fill="#000000" transform="translate(0,0)"/>
<path d="" fill="#000000" transform="translate(0,0)"/>
<path d="" fill="#000000" transform="translate(0,0)"/>
<path d="" fill="#000000" transform="translate(0,0)"/>
<path d="" fill="#000000" transform="translate(0,0)"/>
<path d="" fill="#000000" transform="translate(0,0)"/>
<path d="" fill="#000000" transform="translate(0,0)"/>
<path d="" fill="#000000" transform="translate(0,0)"/>
<path d="" fill="#000000" transform="translate(0,0)"/>
<path d="" fill="#000000" transform="translate(0,0)"/>
<path d="" fill="#000000" transform="translate(0,0)"/>
<path d="" fill="#000000" transform="translate(0,0)"/>
<path d="" fill="#000000" transform="translate(0,0)"/>
<path d="" fill="#000000" transform="translate(0,0)"/>
<path d="" fill="#000000" transform="translate(0,0)"/>
<path d="" fill="#000000" transform="translate(0,0)"/>
<path d="" fill="#000000" transform="translate(0,0)"/>
<path d="" fill="#000000" transform="translate(0,0)"/>
<path d="" fill="#000000" transform="translate(0,0)"/>
<path d="" fill="#000000" transform="translate(0,0)"/>
<path d="" fill="#000000" transform="translate(0,0)"/>
<path d="" fill="#000000" transform="translate(0,0)"/>
<path d="" fill="#000000" transform="translate(0,0)"/>
<path d="" fill="#000000" transform="translate(0,0)"/>
<path d="" fill="#000000" transform="translate(0,0)"/>
<path d="" fill="#000000" transform="translate(0,0)"/>
<path d="" fill="#000000" transform="translate(0,0)"/>
<path d="" fill="#000000" transform="translate(0,0)"/>
<path d="" fill="#000000" transform="translate(0,0)"/>
<path d="" fill="#000000" transform="translate(0,0)"/>
<path d="" fill="#000000" transform="translate(0,0)"/>
</svg>
